<?xml version="1.0" standalone="no"?>
<!DOCTYPE svg PUBLIC "-//W3C//DTD SVG 20010904//EN"
 "http://www.w3.org/TR/2001/REC-SVG-20010904/DTD/svg10.dtd">
<svg version="1.0" xmlns="http://www.w3.org/2000/svg"
 width="700.000000pt" height="700.000000pt" viewBox="0 0 700.000000 700.000000"
 preserveAspectRatio="xMidYMid meet">
<metadata>
Created by potrace 1.14, written by Peter Selinger 2001-2017
</metadata>
<g transform="translate(0.000000,700.000000) scale(0.100000,-0.100000)"
fill="#000000" stroke="none">
<path d="M3377 6634 c-1 -1 -47 -4 -102 -8 -413 -25 -882 -160 -1249 -359
-119 -64 -152 -90 -177 -139 -56 -109 -14 -239 95 -293 75 -37 136 -34 222 11
137 72 229 117 333 159 180 74 427 140 596 161 28 4 53 8 57 10 14 8 218 19
363 18 136 0 270 -7 335 -18 14 -3 43 -7 65 -10 134 -17 467 -106 550 -146 11
-5 49 -21 85 -36 195 -80 411 -205 595 -346 128 -98 313 -275 422 -404 182
-215 340 -483 447 -755 58 -150 118 -357 132 -459 3 -25 8 -48 10 -51 2 -4 6
-31 10 -60 3 -30 8 -57 10 -60 8 -14 18 -198 18 -334 1 -161 -8 -307 -23 -395
-6 -30 -12 -71 -15 -90 -2 -19 -7 -46 -10 -60 -3 -14 -9 -41 -13 -60 -4 -19
-8 -37 -8 -40 -126 -496 -361 -916 -710 -1266 -103 -104 -213 -202 -279 -249
-15 -11 -47 -34 -70 -51 -129 -96 -314 -201 -496 -281 -139 -62 -407 -146
-540 -169 -25 -4 -47 -8 -50 -9 -3 -1 -30 -5 -60 -9 -30 -5 -64 -10 -75 -12
-127 -24 -557 -24 -695 1 -14 2 -43 7 -65 10 -44 6 -64 9 -140 25 -27 6 -60
12 -71 14 -12 3 -76 21 -143 41 -584 174 -1106 553 -1449 1050 -151 219 -291
506 -357 730 -10 33 -23 78 -30 100 -14 45 -53 230 -60 290 -3 22 -7 47 -10
55 -25 89 -25 552 0 711 2 13 7 47 11 74 4 28 9 57 10 65 6 45 49 218 75 305
51 166 110 303 233 540 29 55 36 80 36 125 0 60 -24 118 -67 158 -89 83 -246
73 -317 -20 -34 -45 -123 -215 -170 -323 -21 -49 -46 -108 -56 -130 -29 -66
-99 -290 -125 -398 -24 -99 -29 -126 -41 -196 -3 -18 -8 -43 -10 -55 -4 -21
-12 -73 -19 -136 -27 -221 -23 -580 9 -795 3 -16 8 -52 12 -80 3 -27 8 -53 10
-56 2 -4 6 -24 10 -45 11 -68 54 -235 91 -349 114 -356 299 -698 540 -1000
103 -129 324 -354 438 -445 44 -35 82 -67 85 -70 5 -5 42 -32 155 -111 77 -54
241 -151 335 -198 47 -24 97 -49 111 -56 46 -25 272 -112 369 -143 186 -59
378 -100 595 -128 177 -22 552 -22 715 1 19 2 58 7 85 11 57 7 268 49 329 65
23 6 48 13 56 14 47 10 282 91 366 126 621 258 1139 705 1494 1289 50 82 209
395 214 422 2 7 8 27 15 43 88 216 169 541 197 790 18 165 23 476 10 605 -15
152 -28 247 -41 310 -3 14 -8 41 -11 60 -4 19 -17 78 -31 130 -13 52 -26 105
-28 116 -24 109 -176 484 -245 604 -198 346 -322 512 -555 745 -290 291 -610
508 -988 671 -74 33 -355 131 -395 139 -10 2 -45 10 -79 19 -33 9 -96 23 -140
31 -43 8 -89 17 -103 20 -14 3 -49 7 -78 11 -29 3 -62 7 -73 9 -57 11 -471 28
-482 19z"/>
<path d="M3410 4943 c-128 -43 -200 -148 -197 -285 3 -108 50 -189 142 -243
35 -21 60 -28 140 -39 11 -2 43 2 71 9 180 42 276 242 195 408 -62 128 -219
195 -351 150z"/>
<path d="M3436 4000 c-47 -15 -101 -58 -127 -103 l-24 -42 0 -942 0 -941 30
-44 c17 -23 50 -56 74 -72 110 -74 280 -9 319 122 8 26 11 310 11 947 0 858
-1 913 -18 951 -46 103 -159 155 -265 124z"/>
</g>
</svg>
