<?xml version="1.0" standalone="no"?>
<!DOCTYPE svg PUBLIC "-//W3C//DTD SVG 20010904//EN"
 "http://www.w3.org/TR/2001/REC-SVG-20010904/DTD/svg10.dtd">
<svg version="1.0" xmlns="http://www.w3.org/2000/svg"
 width="700.000000pt" height="700.000000pt" viewBox="0 0 700.000000 700.000000"
 preserveAspectRatio="xMidYMid meet">
<metadata>
Created by potrace 1.14, written by Peter Selinger 2001-2017
</metadata>
<g transform="translate(0.000000,700.000000) scale(0.100000,-0.100000)"
fill="#000000" stroke="none">
<path d="M3368 6164 c-70 -16 -161 -62 -209 -106 -20 -18 -60 -53 -89 -78 -29
-25 -58 -50 -64 -55 -6 -6 -108 -93 -226 -194 -118 -101 -242 -207 -275 -236
-33 -28 -130 -112 -215 -185 -85 -72 -180 -153 -210 -180 -30 -26 -138 -118
-240 -205 -102 -86 -199 -169 -215 -184 -17 -14 -59 -51 -95 -81 -36 -30 -72
-61 -81 -70 -9 -8 -40 -36 -70 -61 -308 -262 -338 -289 -349 -324 -37 -112 67
-221 178 -186 24 7 122 84 278 219 242 207 268 230 464 397 58 50 116 100 130
112 32 28 629 540 970 832 146 124 284 242 307 260 85 67 145 57 262 -46 42
-37 81 -72 86 -77 6 -6 28 -26 50 -45 37 -31 161 -142 224 -200 14 -13 55 -49
91 -80 111 -97 155 -136 170 -151 8 -8 51 -46 95 -85 44 -38 87 -76 96 -85 8
-8 39 -35 68 -60 29 -25 70 -61 90 -80 20 -19 70 -64 111 -100 41 -36 77 -67
80 -70 3 -3 25 -23 50 -44 25 -21 68 -60 95 -85 28 -25 88 -80 135 -121 47
-41 90 -79 96 -85 6 -5 42 -37 79 -70 37 -33 76 -67 85 -75 9 -8 48 -43 86
-77 38 -34 78 -70 90 -80 222 -191 284 -254 294 -296 14 -66 -16 -134 -72
-163 -25 -13 -68 -17 -212 -19 -193 -2 -237 -9 -315 -53 -72 -40 -107 -71
-149 -132 -44 -63 -68 -118 -77 -181 -4 -24 -7 -512 -7 -1084 1 -699 -3 -1051
-10 -1074 -12 -38 -34 -63 -77 -85 -27 -14 -181 -16 -1398 -16 -800 0 -1381 4
-1400 9 -40 11 -78 47 -92 84 -8 19 -11 360 -11 1059 l0 1031 -25 42 c-56 96
-200 91 -252 -8 -15 -29 -16 -124 -16 -1072 1 -572 4 -1058 8 -1080 3 -22 22
-72 41 -111 36 -77 113 -158 185 -195 101 -51 49 -49 1565 -49 1285 0 1416 2
1460 17 143 48 242 144 290 281 l23 67 1 1067 c0 723 4 1076 11 1095 15 41 57
81 93 89 17 4 108 8 201 9 191 3 206 6 284 42 222 105 313 387 194 605 -32 58
-63 91 -219 228 -65 58 -128 114 -140 125 -11 11 -54 49 -94 85 -113 99 -351
310 -390 346 -19 17 -62 55 -95 84 -33 29 -94 83 -135 120 -41 37 -120 107
-175 156 -55 49 -102 91 -105 94 -3 3 -41 36 -85 75 -44 38 -82 72 -85 75 -3
3 -61 55 -130 115 -69 61 -132 117 -140 125 -8 8 -53 49 -100 90 -47 41 -90
79 -96 85 -133 121 -326 286 -359 307 -87 54 -215 75 -317 52z"/>
</g>
</svg>
